<svg width="450" height="70" viewBox="0 0 450 70" fill="none" xmlns="http://www.w3.org/2000/svg">
<path fill-rule="evenodd" clip-rule="evenodd" d="M269.351 13.1008H184.649V65.8992H269.351V13.1008ZM181 9V70H273V9H181Z" fill="white"/>
<path fill-rule="evenodd" clip-rule="evenodd" d="M273 63H182.958V62H273V63Z" fill="white"/>
<path fill-rule="evenodd" clip-rule="evenodd" d="M210.362 27H181V24H210.362V27Z" fill="white"/>
<path fill-rule="evenodd" clip-rule="evenodd" d="M273 27L240.702 27V24L273 24V27Z" fill="white"/>
<path fill-rule="evenodd" clip-rule="evenodd" d="M206.446 20.5441C207.338 20.5441 207.996 19.8156 207.996 19C207.996 18.1844 207.338 17.4559 206.446 17.4559C205.555 17.4559 204.897 18.1844 204.897 19C204.897 19.8156 205.555 20.5441 206.446 20.5441ZM206.446 22C208.068 22 209.383 20.6569 209.383 19C209.383 17.3431 208.068 16 206.446 16C204.825 16 203.51 17.3431 203.51 19C203.51 20.6569 204.825 22 206.446 22Z" fill="white"/>
<path fill-rule="evenodd" clip-rule="evenodd" d="M226.022 60.4899C236.683 60.4899 245.216 51.476 245.216 40.5C245.216 29.524 236.683 20.5101 226.022 20.5101C215.36 20.5101 206.827 29.524 206.827 40.5C206.827 51.476 215.36 60.4899 226.022 60.4899ZM226.022 63C237.913 63 247.554 52.9264 247.554 40.5C247.554 28.0736 237.913 18 226.022 18C214.13 18 204.49 28.0736 204.49 40.5C204.49 52.9264 214.13 63 226.022 63Z" fill="white"/>
<path fill-rule="evenodd" clip-rule="evenodd" d="M226.415 54.1598C233.603 54.1409 239.157 47.9527 239.14 40.6827C239.123 33.4126 233.54 27.2538 226.352 27.2728C219.164 27.2918 213.61 33.4799 213.627 40.75C213.644 48.0201 219.227 54.1788 226.415 54.1598ZM226.429 60.2163C236.526 60.1896 244.69 51.4376 244.665 40.6681C244.64 29.8985 236.435 21.1897 226.338 21.2164C216.242 21.243 208.077 29.9951 208.102 40.7646C208.127 51.5341 216.332 60.243 226.429 60.2163Z" fill="white"/>
<path d="M237.766 39C237.766 46.1797 231.631 52 224.064 52C216.496 52 210.362 46.1797 210.362 39C210.362 31.8203 216.496 26 224.064 26C231.631 26 237.766 31.8203 237.766 39Z" fill="white"/>
<path fill-rule="evenodd" clip-rule="evenodd" d="M267.18 16.0706H254.352V19.9294H267.18V16.0706ZM252.447 14V22H269.085V14H252.447Z" fill="white"/>
<path fill-rule="evenodd" clip-rule="evenodd" d="M202.64 6.55294H188.721V9.44706H202.64V6.55294ZM186.872 5V11H204.489V5H186.872Z" fill="white"/>
<path fill-rule="evenodd" clip-rule="evenodd" d="M189.808 11V5H191.766V11H189.808Z" fill="white"/>
<path fill-rule="evenodd" clip-rule="evenodd" d="M191.766 11V5H192.745V11H191.766Z" fill="white"/>
<path fill-rule="evenodd" clip-rule="evenodd" d="M195.681 11V5H197.638V11H195.681Z" fill="white"/>
<path fill-rule="evenodd" clip-rule="evenodd" d="M200.574 11V5H201.553V11H200.574Z" fill="white"/>
<path fill-rule="evenodd" clip-rule="evenodd" d="M218.295 1.67L212.444 11.81L210.864 10.7728L216.714 0.632811L218.295 1.67Z" fill="white"/>
<path fill-rule="evenodd" clip-rule="evenodd" d="M234.83 3L216.234 3V0L234.83 0V3Z" fill="white"/>
<path fill-rule="evenodd" clip-rule="evenodd" d="M239.501 11.81L233.651 1.67001L235.231 0.632812L241.082 10.7728L239.501 11.81Z" fill="white"/>
<path fill-rule="evenodd" clip-rule="evenodd" d="M230.951 5.86275H220.113V10.1373H230.951V5.86275ZM219.17 5V11H231.894V5H219.17Z" fill="white"/>
<path fill-rule="evenodd" clip-rule="evenodd" d="M267.082 7.84874H258.365V9.15126H267.082V7.84874ZM256.362 6V11H269.085V6H256.362Z" fill="white"/>
<line x1="0.997207" y1="36.5" x2="179.997" y2="35.5" stroke="#FFFBFB"/>
<line x1="273" y1="36.5" x2="450" y2="36.5" stroke="#FFFBFB"/>
</svg>
