<svg width="100" height="51" viewBox="0 0 100 51" fill="none" xmlns="http://www.w3.org/2000/svg">
<path fill-rule="evenodd" clip-rule="evenodd" d="M43.128 14.0731L1.92269 13.9043L1.81588 39.9883L43.0212 40.157L43.128 14.0731ZM0.155823 11.8711L0.0324204 42.007L44.7881 42.1903L44.9115 12.0544L0.155823 11.8711Z" fill="white"/>
<path fill-rule="evenodd" clip-rule="evenodd" d="M44.8022 38.732L0.998832 38.5527L1.00085 38.0586L44.8043 38.238L44.8022 38.732Z" fill="white"/>
<path fill-rule="evenodd" clip-rule="evenodd" d="M14.4031 20.8222L0.119419 20.7637L0.125488 19.2816L14.4092 19.3401L14.4031 20.8222Z" fill="white"/>
<path fill-rule="evenodd" clip-rule="evenodd" d="M44.875 20.947L29.1629 20.8826L29.169 19.4005L44.8811 19.4649L44.875 20.947Z" fill="white"/>
<path fill-rule="evenodd" clip-rule="evenodd" d="M12.5116 17.625C12.9454 17.6268 13.267 17.2682 13.2686 16.8652C13.2703 16.4623 12.9517 16.1011 12.5179 16.0993C12.0841 16.0975 11.7626 16.4561 11.7609 16.8591C11.7593 17.262 12.0779 17.6232 12.5116 17.625ZM12.5087 18.3442C13.2976 18.3475 13.9398 17.6865 13.9431 16.868C13.9465 16.0495 13.3097 15.3833 12.5208 15.38C11.732 15.3768 11.0898 16.0378 11.0864 16.8563C11.083 17.6748 11.7198 18.341 12.5087 18.3442Z" fill="white"/>
<path fill-rule="evenodd" clip-rule="evenodd" d="M21.9533 37.3984C27.1398 37.4196 31.3092 32.9835 31.3314 27.561C31.3536 22.1385 27.2206 17.6684 22.0342 17.6472C16.8478 17.6259 12.6784 22.0621 12.6562 27.4845C12.634 32.907 16.7669 37.3771 21.9533 37.3984ZM21.9483 38.6385C27.7333 38.6621 32.4434 33.7047 32.4685 27.5657C32.4937 21.4266 27.8243 16.4308 22.0393 16.4071C16.2543 16.3834 11.5442 21.3409 11.5191 27.4799C11.4939 33.6189 16.1632 38.6148 21.9483 38.6385Z" fill="white"/>
<path fill-rule="evenodd" clip-rule="evenodd" d="M22.1577 34.2719C25.6546 34.2769 28.3689 31.2308 28.3754 27.6391C28.3819 24.0475 25.6786 20.9937 22.1818 20.9888C18.6849 20.9839 15.9706 24.0299 15.9641 27.6216C15.9576 31.2133 18.6609 34.267 22.1577 34.2719ZM22.1523 37.264C27.0642 37.271 31.0538 32.9635 31.0634 27.6429C31.0731 22.3224 27.099 18.0036 22.1872 17.9967C17.2754 17.9898 13.2857 22.2973 13.2761 27.6178C13.2664 32.9383 17.2405 37.2571 22.1523 37.264Z" fill="white"/>
<path d="M27.7103 26.8051C27.6957 30.3521 24.6996 33.2153 21.0182 33.2002C17.3368 33.1851 14.3643 30.2975 14.3788 26.7505C14.3933 23.2035 17.3894 20.3404 21.0708 20.3554C24.7522 20.3705 27.7248 23.2581 27.7103 26.8051Z" fill="white"/>
<path fill-rule="evenodd" clip-rule="evenodd" d="M42.066 15.5359L35.8252 15.5103L35.8174 17.4167L42.0582 17.4423L42.066 15.5359ZM34.9027 14.4836L34.8865 18.4359L42.9806 18.469L42.9968 14.5168L34.9027 14.4836Z" fill="white"/>
<path fill-rule="evenodd" clip-rule="evenodd" d="M10.6883 10.7053L3.91687 10.6776L3.91102 12.1074L10.6825 12.1351L10.6883 10.7053ZM3.02063 9.90672L3.00849 12.8709L11.5787 12.906L11.5909 9.94182L3.02063 9.90672Z" fill="white"/>
<path fill-rule="evenodd" clip-rule="evenodd" d="M4.43686 12.8768L4.449 9.91257L5.40125 9.91647L5.38911 12.8807L4.43686 12.8768Z" fill="white"/>
<path fill-rule="evenodd" clip-rule="evenodd" d="M5.38912 12.8807L5.40126 9.91647L5.87738 9.91842L5.86524 12.8826L5.38912 12.8807Z" fill="white"/>
<path fill-rule="evenodd" clip-rule="evenodd" d="M7.29361 12.8885L7.30575 9.92427L8.258 9.92817L8.24586 12.8924L7.29361 12.8885Z" fill="white"/>
<path fill-rule="evenodd" clip-rule="evenodd" d="M9.67421 12.8982L9.68635 9.93402L10.1625 9.93597L10.1503 12.9001L9.67421 12.8982Z" fill="white"/>
<path fill-rule="evenodd" clip-rule="evenodd" d="M18.3136 8.32419L15.4471 13.322L14.6805 12.8065L17.547 7.80864L18.3136 8.32419Z" fill="white"/>
<path fill-rule="evenodd" clip-rule="evenodd" d="M26.3547 9.01418L17.3084 8.97714L17.3145 7.49505L26.3608 7.53209L26.3547 9.01418Z" fill="white"/>
<path fill-rule="evenodd" clip-rule="evenodd" d="M28.6096 13.3759L25.7842 8.35479L26.555 7.84553L29.3804 12.8667L28.6096 13.3759Z" fill="white"/>
<path fill-rule="evenodd" clip-rule="evenodd" d="M24.4621 10.4208L19.1895 10.3992L19.1808 12.5109L24.4534 12.5325L24.4621 10.4208ZM18.7327 9.97106L18.7206 12.9352L24.9102 12.9606L24.9223 9.99641L18.7327 9.97106Z" fill="white"/>
<path fill-rule="evenodd" clip-rule="evenodd" d="M42.035 11.4739L37.794 11.4565L37.7914 12.1L42.0323 12.1173L42.035 11.4739ZM36.8234 10.5392L36.8133 13.0093L43.0029 13.0347L43.013 10.5645L36.8234 10.5392Z" fill="white"/>
<path fill-rule="evenodd" clip-rule="evenodd" d="M49.5238 50.1143L49.2937 0.215563L50.6376 0.206516L50.8677 50.1052L49.5238 50.1143Z" fill="white"/>
<path d="M65.6894 11.7641L65.6884 12.0015L58.8869 11.9737L58.8558 19.5698L65.1607 19.5956L65.1597 19.833L58.8548 19.8072L58.8198 28.3529L57.0277 28.3455L57.0957 11.729L65.6894 11.7641Z" fill="white"/>
<path d="M65.7642 28.3813L65.5051 28.3802L72.0292 11.7901L72.2672 11.6724L77.6399 28.4299L75.8046 28.4224L74.1418 23.1932L67.8368 23.1674L65.7642 28.3813ZM71.3493 14.3511L67.9242 22.9303L74.078 22.9555L71.3493 14.3511Z" fill="white"/>
<path d="M87.8321 12.8518C86.5244 12.2926 85.2876 12.0106 84.1216 12.0058C82.9701 12.0011 82.0693 12.2664 81.4193 12.8018C80.7694 13.3372 80.4424 14.0797 80.4385 15.0292C80.4338 16.1845 80.9771 17.0808 82.0686 17.7183C82.5569 17.9894 83.0884 18.2448 83.6633 18.4845C84.2525 18.7085 84.8417 18.9641 85.4307 19.2514C86.0197 19.5386 86.5582 19.8653 87.0461 20.2312C87.5341 20.5972 87.9279 21.1053 88.2275 21.7553C88.5272 22.3896 88.675 23.2052 88.6709 24.2022C88.6669 25.1834 88.4116 26.0211 87.9049 26.7153C87.3982 27.4096 86.7845 27.8818 86.0637 28.1321C85.3574 28.3666 84.5292 28.4819 83.5792 28.478C81.8086 28.4707 80.2991 27.9819 79.0507 27.0114L79.1595 26.8219C79.6328 27.2354 80.2432 27.5781 80.9906 27.8502C81.7525 28.1065 82.5293 28.2363 83.321 28.2396C84.487 28.2443 85.4814 27.9556 86.3043 27.3734C87.1417 26.7755 87.5627 25.8989 87.5675 24.7437C87.5727 23.4776 87.0297 22.4863 85.9386 21.7697C85.4505 21.4512 84.9119 21.1562 84.3228 20.8848C83.7481 20.6134 83.1663 20.334 82.5772 20.0468C81.9883 19.7437 81.4498 19.4091 80.9619 19.0431C79.8712 18.2474 79.3288 17.1216 79.3347 15.6656C79.3394 14.5104 79.6959 13.5781 80.4042 12.8689C81.1125 12.1438 82.172 11.7842 83.5827 11.7899C85.0078 11.7958 86.4534 12.0707 87.9194 12.6148L87.8321 12.8518Z" fill="white"/>
<path d="M95.366 28.5025L93.5739 28.4952L93.641 12.116L89.9055 12.1007L89.9065 11.8633L99.1911 11.9013L99.1902 12.1387L95.4331 12.1233L95.366 28.5025Z" fill="white"/>
<path d="M56.2489 33.9762C57.084 33.9164 57.8183 33.8877 58.4516 33.8903C60.2366 33.8976 61.1262 34.5936 61.1206 35.9783C61.1179 36.6193 60.9645 37.1804 60.6602 37.6619C60.5008 37.9224 60.2552 38.131 59.9235 38.2879C59.5918 38.4369 59.1921 38.5105 58.7242 38.5085L57.1264 38.502L57.1113 42.1932L56.2152 42.1896L56.2489 33.9762ZM58.462 34.009C58.0445 34.0073 57.6054 34.0332 57.1445 34.0867L57.1269 38.3833L58.7247 38.3898C59.7397 38.3465 60.2504 37.5494 60.2568 35.9985C60.2594 35.3655 60.1102 34.8783 59.8093 34.5368C59.5085 34.1874 59.0593 34.0115 58.462 34.009Z" fill="white"/>
<path d="M62.8627 42.2168L61.9667 42.2131L62.0007 33.9048L62.8968 33.9085L62.8811 37.7303L66.3898 37.7447L66.4055 33.9229L67.3016 33.9265L67.2675 42.2348L66.3715 42.2312L66.3894 37.8634L62.8806 37.849L62.8627 42.2168Z" fill="white"/>
<path d="M68.256 38.2864C68.2619 36.8463 68.583 35.7557 69.2194 35.0145C69.8631 34.2654 70.6851 33.8929 71.6856 33.897C72.686 33.9011 73.48 34.2288 74.0675 34.88C74.6622 35.5313 74.9567 36.5691 74.9508 37.9934C74.945 39.4177 74.6239 40.4925 73.9876 41.2179C73.3512 41.9432 72.504 42.3038 71.446 42.2994C70.5319 42.2957 69.7846 42.0038 69.204 41.4238C68.9029 41.1219 68.6671 40.7055 68.4965 40.1746C68.3332 39.6359 68.253 39.0065 68.256 38.2864ZM71.6527 34.0156C70.9257 34.0126 70.3269 34.3662 69.8562 35.0764C69.3926 35.7867 69.158 36.8302 69.1524 38.207C69.1467 39.5838 69.3621 40.5896 69.7986 41.2244C70.235 41.8593 70.8167 42.1782 71.5437 42.1811C72.2778 42.1841 72.8766 41.8305 73.3402 41.1203C73.811 40.4021 74.0491 39.3626 74.0547 38.0016C74.0603 36.6327 73.8413 35.6269 73.3977 34.9841C72.9613 34.3414 72.3796 34.0186 71.6527 34.0156Z" fill="white"/>
<path d="M78.1256 42.2793L77.2295 42.2756L77.2631 34.086L75.3954 34.0784L75.3958 33.9597L80.0382 33.9787L80.0377 34.0974L78.1591 34.0897L78.1256 42.2793Z" fill="white"/>
<path d="M80.2434 38.3355C80.2493 36.8954 80.5705 35.8048 81.2069 35.0636C81.8505 34.3145 82.6726 33.942 83.673 33.9461C84.6734 33.9502 85.4674 34.2779 86.0549 34.9291C86.6497 35.5804 86.9441 36.6182 86.9383 38.0425C86.9325 39.4668 86.6114 40.5416 85.975 41.267C85.3387 41.9923 84.4915 42.3528 83.4335 42.3485C82.5194 42.3448 81.772 42.0529 81.1914 41.4729C80.8904 41.171 80.6546 40.7546 80.484 40.2237C80.3206 39.685 80.2405 39.0556 80.2434 38.3355ZM83.6401 34.0647C82.9132 34.0617 82.3143 34.4153 81.8436 35.1255C81.3801 35.8358 81.1455 36.8793 81.1398 38.2561C81.1342 39.6329 81.3496 40.6387 81.786 41.2735C82.2225 41.9083 82.8042 42.2272 83.5311 42.2302C84.2652 42.2332 84.8641 41.8796 85.3276 41.1693C85.7984 40.4512 86.0366 39.4117 86.0422 38.0507C86.0478 36.6818 85.8288 35.676 85.3852 35.0332C84.9487 34.3905 84.3671 34.0676 83.6401 34.0647Z" fill="white"/>
</svg>
